<svg aria-hidden="true" style="position:absolute;width:0;height:0;overflow:hidden" xmlns="http://www.w3.org/2000/svg"><defs>
<symbol id="icon-enter" viewBox="0 0 34 32">
<path d="M33.177 14.95h-17.747l4.446-4.448c0.19-0.19 0.308-0.453 0.308-0.743 0-0.58-0.471-1.051-1.051-1.051-0.29 0-0.553 0.118-0.743 0.308v0l-6.24 6.242c-0.048 0.047-0.091 0.099-0.129 0.154l-0.002 0.004c-0.008 0.013-0.013 0.025-0.021 0.038-0.026 0.040-0.052 0.087-0.073 0.136l-0.003 0.007c-0.008 0.019-0.013 0.040-0.019 0.058-0.014 0.037-0.028 0.083-0.039 0.13l-0.002 0.008c-0.013 0.062-0.021 0.134-0.021 0.208s0.008 0.145 0.022 0.214l-0.001-0.007c0.013 0.054 0.027 0.099 0.044 0.143l-0.002-0.007c0 0.021 0.011 0.041 0.019 0.060 0.024 0.055 0.049 0.101 0.077 0.145l-0.002-0.004c0.008 0.013 0.014 0.027 0.022 0.041 0.040 0.059 0.083 0.111 0.131 0.158l0 0 6.24 6.24c0.19 0.19 0.453 0.308 0.743 0.308 0.58 0 1.051-0.471 1.051-1.051 0-0.29-0.118-0.553-0.308-0.743v0l-4.446-4.446h17.747c0.581 0 1.051-0.471 1.051-1.051s-0.471-1.051-1.051-1.051v0z"></path>
<path d="M31.589 20.19c-0.023-0.002-0.050-0.003-0.078-0.003-0.554 0-1.008 0.432-1.042 0.978l-0 0.003c-0.158 2.241-0.401 4.541-1.622 5.887-1.264 1.134-2.897 1.88-4.698 2.040l-0.031 0.002c-2.388 0.488-5.143 0.779-7.961 0.802l-0.018 0c-2.84-0.075-5.556-0.348-8.209-0.806l0.335 0.048c-2.013-0.1-3.734-1.257-4.629-2.924l-0.015-0.030c-0.828-1.806-1.334-3.914-1.386-6.133l-0-0.019c-0.071-1.035-0.099-2.096-0.12-3.009-0.055-2.412 0.084-4.772 0.226-6.763-0-0.010-0-0.023-0-0.035 0-1.769 0.438-3.436 1.212-4.898l-0.027 0.057c0.538-0.769 1.272-1.366 2.13-1.725l0.032-0.012c0.778-0.337 1.686-0.611 2.632-0.779l0.075-0.011c2.378-0.487 5.112-0.765 7.91-0.765 1.86 0 3.692 0.123 5.487 0.362l-0.21-0.023 0.461 0.057c2.212 0.086 4.26 0.714 6.038 1.755l-0.061-0.033c1.419 1.247 2.326 3.047 2.382 5.061l0 0.010c0.070 0.518 0.51 0.914 1.042 0.914 0.58 0 1.051-0.47 1.051-1.051 0-0.048-0.003-0.096-0.010-0.142l0.001 0.005c-0.116-2.635-1.359-4.958-3.255-6.514l-0.016-0.012c-1.979-1.204-4.35-1.961-6.887-2.077l-0.032-0.001-0.45-0.055c-1.667-0.228-3.593-0.358-5.55-0.358-2.934 0-5.801 0.292-8.571 0.849l0.277-0.046c-1.196 0.21-2.26 0.533-3.266 0.966l0.094-0.036c-1.258 0.539-2.293 1.393-3.038 2.465l-0.015 0.023c-0.96 1.698-1.527 3.728-1.53 5.89v0.001c-0.147 2.039-0.287 4.462-0.231 6.961 0.021 0.937 0.051 2.026 0.123 3.105 0.069 2.547 0.66 4.94 1.67 7.097l-0.046-0.11c1.234 2.268 3.511 3.833 6.17 4.053l0.028 0.002c2.406 0.425 5.224 0.706 8.093 0.779l0.074 0.002h0.183c2.915-0.034 5.738-0.336 8.472-0.884l-0.291 0.049c2.309-0.23 4.352-1.215 5.915-2.702l-0.004 0.004c1.674-1.845 1.987-4.547 2.164-7.157 0.001-0.019 0.002-0.042 0.002-0.064 0-0.555-0.43-1.009-0.975-1.048l-0.003-0z"></path>
</symbol>
</defs></svg>